<?xml version="1.0" standalone="no"?><!-- Generator: Adobe Fireworks CS6, Export SVG Extension by Aaron Beall (http://fireworks.abeall.com) . Version: 0.6.1  --><!DOCTYPE svg PUBLIC "-//W3C//DTD SVG 1.1//EN" "http://www.w3.org/Graphics/SVG/1.1/DTD/svg11.dtd"><svg id="Untitled-Page%201" viewBox="0 0 40 30" style="background-color:#ffffff00" version="1.1"	xmlns="http://www.w3.org/2000/svg" xmlns:xlink="http://www.w3.org/1999/xlink" xml:space="preserve"	x="0px" y="0px" width="40px" height="30px">	<g id="Layer%201">		<g>			<path d="M 7.8213 0 L 18.1006 18.9474 L 31.0615 18.9474 C 32.4021 16.015 37.5419 4.9624 38.8827 4.9624 C 39.553 4.9624 40 5.4135 40 6.0902 C 40 6.9925 33.9666 18.7218 32.1787 21.203 L 16.9833 21.203 C 13.4078 15.5639 9.8325 8.1203 6.4805 2.2556 L 0.6704 2.2556 C 0.447 2.0301 0 1.5789 0 1.1278 C 0 0.4511 0.2234 0.4511 0.6704 0 L 7.8213 0 ZM 19.2179 26.8421 C 19.2179 28.6466 17.6537 30 16.0894 30 C 13.6313 30 13.4078 27.9699 13.4078 26.8421 C 13.4078 24.812 14.0782 24.1353 16.0894 24.1353 C 17.6537 24.1353 19.2179 25.0376 19.2179 26.8421 ZM 36.2012 26.8421 C 36.2012 28.6466 34.637 30 33.0725 30 C 30.8379 30 30.3911 27.9699 30.3911 26.8421 C 30.3911 25.0376 31.0615 24.1353 33.0725 24.1353 C 34.637 24.1353 36.2012 25.0376 36.2012 26.8421 Z" fill="#ffffff"/>		</g>	</g></svg>