<?xml version="1.0" standalone="no"?><!-- Generator: Adobe Fireworks CS6, Export SVG Extension by Aaron Beall (http://fireworks.abeall.com) . Version: 0.6.1  --><!DOCTYPE svg PUBLIC "-//W3C//DTD SVG 1.1//EN" "http://www.w3.org/Graphics/SVG/1.1/DTD/svg11.dtd"><svg id="Untitled-Page%201" viewBox="0 0 28 27" style="background-color:#ffffff00" version="1.1"	xmlns="http://www.w3.org/2000/svg" xmlns:xlink="http://www.w3.org/1999/xlink" xml:space="preserve"	x="0px" y="0px" width="35px" height="34px">	<g>		<path d="M 10.4016 17.3728 C 6.2196 17.3728 2.8176 14.0867 2.8176 10.0474 C 2.8176 6.008 6.2199 2.7217 10.4016 2.7217 C 14.5834 2.7217 17.9854 6.008 17.9854 10.0474 C 17.9854 14.0867 14.5834 17.3728 10.4016 17.3728 L 10.4016 17.3728 ZM 27.8142 24.0903 L 19.0544 15.6286 C 20.1921 13.9904 20.8033 12.0642 20.8033 10.0474 C 20.8033 7.3636 19.7214 4.8404 17.7566 2.9426 C 15.7919 1.0451 13.1801 0 10.4016 0 C 7.6232 0 5.0111 1.0451 3.0464 2.9426 C 1.0819 4.8404 0 7.3636 0 10.0474 C 0 12.7312 1.0819 15.254 3.0467 17.1519 C 5.0114 19.0497 7.6232 20.0948 10.4019 20.0948 C 12.5134 20.0948 14.5283 19.4905 16.2365 18.3679 L 24.9879 26.8206 C 25.2833 27.1062 25.8265 27.044 26.2008 26.6824 L 27.6714 25.2619 C 28.0457 24.9003 28.1098 24.3756 27.8142 24.0903 L 27.8142 24.0903 Z" fill="#ffffff"/>	</g></svg>